PathFileType	4	(X/Y/Z)	C:\Users\86182\Documents\cortex\Trimmed_M3_L3.trc
DataRate	CameraRate	NumFrames	NumMarkers	Units	OrigDataRate	OrigDataStartFrame	OrigNumFrames
100.00	100.00	       169	2	mm	100.00	181	       901
Frame#	Time	gripper			box			
		X1	Y1	Z1	X2	Y2	Z2	

181	1.800	275.21375	148.86105	216.74377	277.42026	147.33266	80.81477	
182	1.810	275.17456	148.83711	216.93544	276.94162	147.34296	81.31078	
183	1.820	274.35739	149.07806	217.83607	277.02344	147.21382	81.86305	
184	1.830	274.56030	149.05865	218.13812	277.25308	147.31871	82.27116	
185	1.840	274.49930	148.99152	218.57162	277.31219	147.41682	82.67893	
186	1.850	274.47629	148.94226	218.87517	277.22601	147.36244	82.98555	
187	1.860	274.35803	148.95862	219.36484	276.82196	147.31998	83.60031	
188	1.870	274.17807	148.97952	219.90277	276.71350	147.31747	83.92515	
189	1.880	274.18622	148.94736	220.11777	276.77097	147.32968	84.19273	
190	1.890	274.07007	148.88686	220.65486	276.84280	147.25346	84.82209	
191	1.900	274.07758	148.84923	221.16328	276.66238	147.13756	85.26273	
192	1.910	274.14996	148.84175	221.51891	276.66248	147.05841	85.73073	
193	1.920	274.21097	148.78647	221.86922	276.56921	147.00763	86.10733	
194	1.930	273.92844	148.83984	222.45903	276.64102	147.14621	86.40123	
195	1.940	274.16516	148.94434	222.95618	276.81146	147.22031	86.88457	
196	1.950	274.19644	148.87192	223.37564	276.85010	147.17741	87.51779	
197	1.960	274.18542	148.70932	223.63956	276.55817	147.02994	88.02336	
198	1.970	274.23285	148.91406	224.32518	276.75528	147.06657	88.26711	
199	1.980	274.26044	149.05013	224.61882	276.86844	147.20287	88.64043	
200	1.990	274.06699	148.97722	225.11769	276.94705	147.20877	88.99481	
201	2.000	274.07184	148.86258	225.54680	276.77075	147.18092	89.59989	
202	2.010	274.48422	148.86911	225.85776	276.65485	147.14360	90.15792	
203	2.020	274.13763	149.10234	226.32323	276.84424	147.09494	90.36507	
204	2.030	274.15115	148.96098	226.70033	276.82700	147.16130	90.73036	
205	2.040	274.02951	148.97818	227.14081	276.82196	147.12961	91.09463	
206	2.050	274.28192	148.95012	227.53416	276.60767	147.18230	91.46436	
207	2.060	274.38129	148.89749	227.79225	276.48483	147.15938	92.21224	
208	2.070	274.21225	149.01297	228.29164	276.70041	147.25613	92.56509	
209	2.080	274.21777	149.08978	228.90216	276.66193	147.31146	92.99906	
210	2.090	274.01050	149.02171	229.32332	276.68918	147.19720	93.29276	
211	2.100	274.34094	149.05000	229.66586	276.62045	147.20535	93.75026	
212	2.110	274.23376	149.02414	230.10893	276.57529	147.29503	94.29819	
213	2.120	274.13391	149.09453	230.71771	276.65900	147.36795	94.86742	
214	2.130	273.81119	149.10355	231.09827	276.58334	147.42691	95.18343	
215	2.140	274.20041	149.14824	231.41281	277.05524	147.24660	95.24789	
216	2.150	274.04306	149.17564	231.97670	276.31708	147.45566	96.14167	
217	2.160	274.02740	149.12920	232.37895	276.33743	147.39520	96.50613	
218	2.170	273.96127	149.24597	232.81088	276.32898	147.44455	96.82975	
219	2.180	274.16098	149.21484	233.11562	276.40167	147.64140	97.33823	
220	2.190	274.00500	149.21350	233.64017	276.63892	147.47644	97.59299	
221	2.200	274.02802	149.20862	233.96202	276.17142	147.52440	98.22296	
222	2.210	273.93405	149.22307	234.39368	276.18213	147.34097	98.54395	
223	2.220	273.88528	149.28746	234.81161	276.25140	147.45021	98.83231	
224	2.230	273.97095	149.27869	235.19687	276.30963	147.60574	99.15179	
225	2.240	273.84512	149.27325	235.67101	276.29480	147.62582	99.98566	
226	2.250	274.05029	149.21069	236.01659	275.97433	147.62785	100.28647	
227	2.260	274.03049	149.21167	236.49828	276.11627	147.52281	100.66695	
228	2.270	273.90762	149.35637	236.95915	276.32980	147.48914	100.94669	
229	2.280	274.03146	149.37494	237.34172	276.46564	147.60794	101.39023	
230	2.290	274.12589	149.29631	237.83630	276.36151	147.58130	101.96967	
231	2.300	274.12448	149.31769	238.33574	276.28546	147.65385	102.43919	
232	2.310	274.00333	149.40752	238.73120	276.31500	147.69168	102.87168	
233	2.320	274.14816	149.46994	239.22810	276.37860	147.76862	103.32117	
234	2.330	274.13876	149.37708	239.71553	276.35910	147.70197	103.62823	
235	2.340	274.14343	149.37250	240.08507	276.45474	147.77419	104.19826	
236	2.350	274.11597	149.41566	240.52190	276.36761	147.72722	104.79594	
237	2.360	274.11948	149.43124	241.01723	276.10776	147.84726	105.28095	
238	2.370	273.96918	149.57863	241.54799	276.17523	147.88760	105.44939	
239	2.380	274.05551	149.52077	241.67520	276.03879	147.90163	105.77057	
240	2.390	274.13449	149.52219	242.14816	276.00208	147.94714	106.22565	
241	2.400	273.93671	149.43231	242.56969	275.81842	147.90320	106.95897	
242	2.410	274.04944	149.49797	243.08922	275.92435	147.92953	107.18498	
243	2.420	273.98865	149.56329	243.39973	276.06247	147.96402	107.51548	
244	2.430	273.95627	149.60130	243.96324	275.95355	148.07071	107.97898	
245	2.440	273.78296	149.54057	244.33873	275.74335	147.98891	108.57236	
246	2.450	273.95663	149.39749	244.61848	275.78177	147.97501	108.80926	
247	2.460	274.10260	149.49223	245.09344	275.98340	147.93509	109.31096	
248	2.470	274.23831	149.54355	245.65895	276.17657	147.79585	109.75561	
249	2.480	273.96860	149.55716	246.05913	276.14038	147.96959	110.19587	
250	2.490	273.92154	149.53355	246.28761	275.88849	148.11176	110.59410	
251	2.500	274.19650	149.47437	246.95081	275.89035	147.98886	110.90828	
252	2.510	274.25171	149.34879	247.38455	276.02158	147.89795	111.58371	
253	2.520	274.06207	149.44556	247.80902	276.41916	147.87962	111.79404	
254	2.530	273.89822	149.46606	248.32486	276.10712	147.88371	112.35393	
255	2.540	273.97495	149.42761	248.68411	275.92670	148.08716	112.77092	
256	2.550	273.80579	149.35573	249.01346	275.91949	147.95387	113.24749	
257	2.560	274.02618	149.30798	249.35222	276.10699	147.96002	113.49834	
258	2.570	273.83295	149.28233	250.02420	276.24295	147.99146	113.76550	
259	2.580	273.84717	149.44781	250.44220	276.05911	147.85898	114.21932	
260	2.590	273.63443	149.37379	250.76120	275.83398	147.93661	114.94366	
261	2.600	273.54572	149.26256	251.07526	275.70432	148.01390	115.31261	
262	2.610	273.44272	149.23868	251.52913	275.96555	148.09207	115.48029	
263	2.620	273.81769	149.34233	252.05109	275.78149	147.88651	115.76100	
264	2.630	273.69391	149.37697	252.44034	275.77640	147.82253	116.44073	
265	2.640	273.51743	149.23711	252.82799	275.60797	147.89279	116.87778	
266	2.650	273.54053	149.29510	253.31001	275.70679	147.92468	117.40383	
267	2.660	273.68808	149.39394	253.60982	275.75510	147.92575	117.64742	
268	2.670	273.57913	149.36275	254.22437	275.66199	147.81670	118.12140	
269	2.680	273.64532	149.29353	254.75650	275.73267	147.80724	118.47244	
270	2.690	273.82126	149.30884	255.03513	275.68631	147.88800	119.07912	
271	2.700	273.78317	149.32303	255.33813	275.61731	147.97685	119.58522	
272	2.710	273.52191	149.36163	255.85367	275.93854	147.86671	119.94917	
273	2.720	273.55136	149.47310	256.48410	275.77020	147.81079	120.30614	
274	2.730	273.78046	149.28435	256.83145	275.48193	147.86046	120.72572	
275	2.740	273.78152	149.29568	257.17749	275.67010	147.86905	121.17117	
276	2.750	273.66211	149.31596	257.57596	275.77417	147.89131	121.64875	
277	2.760	273.59286	149.38225	258.10919	275.89584	147.96793	122.05881	
278	2.770	273.46759	149.45358	258.44620	275.72247	147.88367	122.56831	
279	2.780	273.66983	149.47050	258.92664	275.48468	147.94348	122.84698	
280	2.790	273.86438	149.37334	259.32532	275.51016	147.92155	123.16521	
281	2.800	273.78119	149.36542	259.67883	275.69119	147.87891	123.65194	
282	2.810	273.53448	149.39189	260.05249	275.51355	147.86198	124.11725	
283	2.820	273.63412	149.47960	260.41092	275.48486	147.92943	124.62426	
284	2.830	273.65302	149.43495	261.07590	275.41782	147.82545	125.09392	
285	2.840	273.61337	149.43983	261.39755	275.49634	147.86388	125.32487	
286	2.850	273.73318	149.41154	261.73154	275.48511	147.78525	125.62718	
287	2.860	273.78259	149.41829	262.26700	275.48068	147.87036	126.20885	
288	2.870	273.63522	149.48431	262.64398	275.51169	147.93459	126.88327	
289	2.880	273.74115	149.45036	263.06686	275.50156	147.88383	127.32982	
290	2.890	273.67868	149.53650	263.53394	275.46579	147.74396	127.56182	
291	2.900	273.84241	149.43208	264.00610	275.68085	147.77428	127.75447	
292	2.910	273.83884	149.46873	264.43719	275.38800	147.96082	128.54509	
293	2.920	273.80420	149.52269	264.82449	275.38873	147.88319	129.12556	
294	2.930	273.68533	149.55144	265.36667	275.28976	147.86397	129.44922	
295	2.940	273.71320	149.52573	265.78134	275.64832	147.87738	129.74043	
296	2.950	273.85120	149.51540	266.02548	275.71921	147.82333	129.95032	
297	2.960	273.71863	149.51532	266.62109	275.30212	147.90672	130.58070	
298	2.970	273.73926	149.56433	266.97809	275.25797	147.91847	131.10205	
299	2.980	273.68427	149.58476	267.37253	275.46893	147.92740	131.50328	
300	2.990	273.78876	149.57372	267.74310	275.56302	147.95300	131.87457	
301	3.000	273.73898	149.52420	268.17987	275.40680	147.87825	132.23767	
302	3.010	273.60382	149.56314	268.63797	275.12723	147.92566	132.63226	
303	3.020	273.60501	149.61356	269.00854	275.14822	148.08482	133.02422	
304	3.030	273.72922	149.65793	269.42532	275.30792	147.98859	133.64314	
305	3.040	273.69260	149.57214	269.98593	275.49216	147.97998	134.04839	
306	3.050	273.72571	149.46399	270.27350	275.34024	147.97162	134.27646	
307	3.060	273.68362	149.66396	270.63461	275.21365	147.97577	134.62546	
308	3.070	273.83514	149.68250	271.15671	275.22046	148.02188	135.37405	
309	3.080	273.82306	149.63081	271.57620	275.23837	148.11003	135.70221	
310	3.090	273.64749	149.68294	272.02371	275.46442	148.04089	135.91440	
311	3.100	273.98593	149.70717	272.49280	275.45410	147.96378	136.64934	
312	3.110	273.57523	149.69614	273.02505	275.36896	148.00803	137.06000	
313	3.120	273.64032	149.62415	273.40912	275.27386	148.04970	137.43582	
314	3.130	273.68765	149.65701	273.75488	275.28613	148.11765	137.67360	
315	3.140	273.65140	149.68007	274.45862	275.54526	147.99634	138.33611	
316	3.150	273.61365	149.69859	274.69498	275.65802	147.99545	138.85405	
317	3.160	273.39020	149.78568	275.06323	275.37820	148.06642	139.20360	
318	3.170	273.46301	149.70021	275.65277	275.23892	148.07286	139.51463	
319	3.180	273.42133	149.68304	276.01208	275.53851	148.08243	140.10066	
320	3.190	273.45074	149.72414	276.46432	275.44382	148.16600	140.42230	
321	3.200	273.22998	149.76959	276.81155	275.23392	148.28705	140.85803	
322	3.210	273.51120	149.71472	277.44879	275.02243	148.16667	141.42357	
323	3.220	273.30347	149.74097	277.68481	275.11246	148.12140	141.75131	
324	3.230	273.25095	149.68141	277.92960	275.37460	148.24951	142.09811	
325	3.240	273.04459	149.58817	278.46506	275.38837	148.24811	142.37450	
326	3.250	273.43631	149.78114	279.03546	275.09036	148.19270	142.90475	
327	3.260	273.17383	149.80334	279.43350	275.11334	148.16537	143.52167	
328	3.270	273.09564	149.58139	279.79846	275.24911	148.34888	143.86514	
329	3.280	273.17096	149.68750	280.35382	275.53137	148.28088	143.97894	
330	3.290	273.33496	149.66127	280.65170	275.20987	148.21910	144.60742	
331	3.300	273.30750	149.65974	281.08994	275.24329	148.22853	145.10204	
332	3.310	273.07779	149.64444	281.56747	275.39343	148.27223	145.53056	
333	3.320	273.34760	149.73415	281.98486	275.46732	148.30905	145.97890	
334	3.330	273.31174	149.70642	282.33871	275.34790	148.22388	146.36247	
335	3.340	273.31711	149.55524	282.72540	275.42722	148.26250	146.85150	
336	3.350	273.48233	149.62941	283.31775	275.37576	148.27483	147.26711	
337	3.360	273.40399	149.72755	283.73151	275.35425	148.21596	147.61713	
338	3.370	273.24811	149.71701	284.05740	275.49820	148.24257	148.13515	
339	3.380	273.29114	149.63844	284.45261	275.34442	148.33150	148.53883	
340	3.390	273.36279	149.61339	284.87534	275.26068	148.39293	148.94196	
341	3.400	273.42807	149.64558	285.37540	275.19937	148.31848	149.35950	
342	3.410	273.37103	149.72293	285.86777	275.31839	148.26831	149.69899	
343	3.420	273.28415	149.84386	286.25015	275.43100	148.27505	150.12956	
344	3.430	273.27502	149.69720	286.47842	275.36246	148.33444	150.53552	
345	3.440	273.33456	149.70656	286.89920	275.15662	148.25055	150.98550	
346	3.450	273.49017	149.71124	287.35162	275.00967	148.31302	151.50734	
347	3.460	273.44073	149.72614	287.79895	274.94708	148.37311	151.83559	
348	3.470	273.35117	149.78819	288.28000	275.07291	148.23492	152.09108	
349	3.480	273.17883	149.81750	288.57895	275.11215	148.22620	152.60822	
